<?xml version="1.0" standalone="no"?>
<!DOCTYPE svg PUBLIC "-//W3C//DTD SVG 20010904//EN"
 "http://www.w3.org/TR/2001/REC-SVG-20010904/DTD/svg10.dtd">
<svg version="1.0" xmlns="http://www.w3.org/2000/svg"
 width="3464.000000pt" height="3464.000000pt" viewBox="0 0 3464.000000 3464.000000"
 preserveAspectRatio="xMidYMid meet">
<metadata>
Created by potrace 1.16, written by Peter Selinger 2001-2019
</metadata>
<g transform="translate(0.000000,3464.000000) scale(0.100000,-0.100000)"
fill="#000000" stroke="none">
<path d="M2701 29979 c-142 -17 -254 -54 -371 -123 -253 -149 -414 -384 -465
-675 -23 -128 -22 -1233 1 -1352 73 -384 332 -666 709 -769 76 -21 107 -23
620 -30 522 -8 647 -14 935 -45 575 -64 1001 -213 1160 -407 189 -230 294
-605 330 -1179 17 -265 9 -16201 -8 -16359 -58 -531 -151 -858 -291 -1024
-209 -247 -691 -389 -1476 -436 -104 -6 -415 -15 -690 -20 -406 -7 -512 -11
-565 -25 -350 -87 -618 -353 -712 -706 -22 -82 -22 -101 -26 -719 -3 -678 -1
-729 45 -875 100 -319 344 -550 678 -642 l100 -28 6710 0 c6985 0 6820 -1
7565 41 1957 109 3668 436 5060 967 754 288 1509 659 2080 1020 978 619 1721
1252 2514 2142 798 895 1409 1791 1920 2815 730 1465 1186 3091 1326 4732 60
706 66 1564 15 2268 -114 1558 -462 2945 -1087 4330 -573 1268 -1442 2498
-2401 3398 -933 875 -1906 1551 -3055 2120 -1447 718 -3025 1195 -4712 1426
-501 69 -972 112 -1625 148 -257 14 -14166 21 -14284 7z m14147 -969 c1676
-69 3160 -347 4612 -865 1671 -596 3128 -1483 4316 -2627 1589 -1529 2673
-3713 3024 -6093 172 -1165 184 -2419 34 -3580 -230 -1790 -877 -3560 -1832
-5015 -460 -702 -914 -1262 -1547 -1909 -1062 -1086 -2287 -1874 -3820 -2458
-1285 -490 -2927 -798 -4775 -897 -778 -42 -593 -41 -7455 -41 l-6590 0 -3
536 -2 537 477 5 c641 7 978 32 1381 102 739 129 1242 418 1525 875 211 343
325 785 389 1520 16 182 24 15740 9 16145 -6 149 -18 340 -26 425 -111 1120
-506 1744 -1289 2037 -535 200 -1152 283 -2113 283 l-353 0 0 515 0 515 6895
0 c4496 0 6982 -4 7143 -10z"/>
<path d="M10220 19108 c0 -5582 4 -8978 10 -9138 25 -645 125 -1157 314 -1604
224 -531 647 -952 1266 -1262 383 -192 765 -307 1305 -394 518 -84 1066 -116
1810 -107 485 7 623 12 1050 42 1266 90 2488 353 3489 750 604 239 1082 486
1586 820 1155 764 2042 1770 2673 3030 524 1048 861 2248 1021 3635 109 941
134 2022 71 3000 -126 1940 -591 3621 -1403 5070 -1045 1866 -2548 3221 -4532
4085 -1300 566 -2738 877 -4365 945 -140 6 -1087 10 -2267 10 l-2028 0 0
-8882z m4220 7912 c592 -26 996 -64 1499 -140 1679 -256 3208 -886 4426 -1824
288 -221 485 -394 759 -665 572 -565 1023 -1161 1447 -1912 634 -1125 1046
-2458 1218 -3944 144 -1240 125 -2706 -50 -3910 -269 -1848 -882 -3300 -1874
-4435 -813 -931 -1908 -1633 -3220 -2065 -938 -310 -1916 -478 -3170 -546
-295 -17 -1237 -17 -1475 -1 -775 53 -1329 172 -1730 372 -414 207 -675 445
-816 744 -111 237 -193 560 -241 951 -16 131 -18 677 -20 8763 l-3 8622 1508
0 c865 0 1607 -4 1742 -10z"/>
</g>
</svg>
