<?xml version="1.0" standalone="no"?>
<!DOCTYPE svg PUBLIC "-//W3C//DTD SVG 20010904//EN"
 "http://www.w3.org/TR/2001/REC-SVG-20010904/DTD/svg10.dtd">
<svg version="1.0" xmlns="http://www.w3.org/2000/svg"
 width="499.000000pt" height="499.000000pt" viewBox="0 0 499.000000 499.000000"
 preserveAspectRatio="xMidYMid meet">
<metadata>
Created by potrace 1.16, written by Peter Selinger 2001-2019
</metadata>
<g transform="translate(0.000000,499.000000) scale(0.100000,-0.100000)"
fill="#000000" stroke="none">
<path d="M2264 4440 c-18 -18 -131 -25 -151 -9 -11 9 -14 10 -9 2 5 -9 1 -13
-11 -14 -25 -2 -47 -6 -123 -20 -36 -7 -75 -13 -87 -13 -13 -1 -23 -5 -23 -10
0 -4 -9 -6 -20 -3 -11 3 -18 1 -14 -4 3 -5 -8 -9 -23 -9 -16 0 -33 -4 -39 -9
-5 -4 -38 -16 -74 -26 -36 -9 -71 -22 -77 -27 -7 -6 -13 -7 -13 -3 0 4 -7 2
-15 -5 -8 -6 -20 -8 -26 -4 -7 4 -9 3 -6 -3 8 -13 -89 -57 -104 -47 -8 4 -9 3
-5 -4 6 -10 -50 -42 -71 -41 -3 1 -9 -5 -14 -13 -5 -7 -12 -13 -16 -13 -4 0
-23 -10 -40 -23 -18 -13 -38 -20 -44 -16 -7 4 -9 3 -6 -3 7 -10 -101 -90 -115
-86 -4 2 -7 -3 -5 -10 1 -6 -4 -11 -10 -10 -7 2 -13 -2 -13 -7 0 -5 -6 -9 -12
-7 -7 1 -12 -4 -11 -10 2 -7 -3 -13 -11 -13 -8 0 -17 -7 -20 -16 -3 -8 -11
-12 -16 -9 -6 4 -9 1 -8 -7 2 -7 -3 -12 -9 -11 -7 2 -12 -2 -10 -9 1 -6 -8
-17 -20 -23 -13 -7 -21 -14 -18 -17 3 -3 -4 -13 -16 -23 -17 -17 -22 -17 -30
-5 -8 12 -9 10 -5 -6 5 -15 -4 -30 -34 -58 -22 -20 -44 -35 -48 -32 -4 2 -9
-5 -9 -17 -1 -12 -7 -23 -13 -25 -5 -2 -10 -10 -10 -18 0 -9 -4 -13 -8 -10 -4
2 -14 -9 -21 -25 -7 -16 -20 -29 -29 -30 -10 0 -12 -3 -5 -6 8 -3 9 -8 3 -16
-6 -7 -29 -41 -51 -77 -23 -36 -45 -67 -50 -68 -5 -2 -7 -8 -3 -13 3 -5 0 -9
-6 -9 -6 0 -8 -4 -5 -10 3 -5 1 -10 -4 -10 -6 0 -10 -3 -9 -7 4 -17 -45 -112
-55 -106 -5 3 -7 2 -4 -4 8 -12 -14 -84 -23 -78 -4 3 -8 -1 -7 -8 1 -31 -4
-48 -12 -43 -5 4 -7 -4 -3 -16 3 -14 1 -19 -6 -14 -8 5 -10 2 -6 -8 3 -9 1
-16 -6 -16 -6 0 -9 -4 -6 -9 4 -5 1 -22 -6 -38 -6 -15 -12 -41 -13 -56 -2 -15
-11 -37 -21 -49 -11 -12 -13 -18 -5 -13 10 6 11 2 6 -16 -4 -13 -11 -25 -15
-27 -3 -1 -4 -16 -2 -32 2 -17 0 -30 -4 -30 -5 0 -9 -12 -10 -27 -3 -89 -8
-132 -15 -128 -4 3 -5 -5 -1 -17 4 -16 2 -19 -9 -13 -12 7 -12 6 -1 -8 10 -12
12 -31 6 -74 -4 -32 -7 -77 -7 -101 1 -29 -2 -40 -10 -35 -9 5 -9 3 -1 -8 6
-8 12 -34 14 -59 3 -72 7 -122 14 -160 3 -19 8 -57 10 -85 3 -27 8 -62 12 -77
4 -20 3 -28 -7 -28 -9 0 -10 -3 -3 -8 15 -10 37 -70 31 -85 -3 -7 1 -21 8 -30
7 -9 11 -28 9 -42 -1 -14 2 -23 7 -19 5 3 10 -1 11 -8 0 -7 2 -17 2 -23 1 -5
5 -16 10 -24 7 -10 5 -12 -5 -7 -8 5 -8 2 2 -6 9 -7 14 -19 11 -27 -2 -7 1
-17 8 -21 6 -4 13 -19 13 -33 1 -14 4 -24 7 -22 3 2 12 -11 19 -28 7 -18 17
-40 22 -51 8 -14 8 -16 -3 -10 -7 4 -1 -7 14 -25 26 -30 30 -38 27 -57 0 -4 3
-10 8 -13 10 -7 43 -67 40 -72 -1 -2 0 -3 2 -2 9 6 32 -38 25 -49 -4 -7 -3 -8
4 -4 7 4 12 1 12 -7 0 -8 7 -18 16 -21 9 -4 15 -9 12 -11 -3 -3 10 -21 28 -40
22 -23 31 -41 27 -52 -4 -10 -2 -14 5 -9 13 8 44 -33 35 -47 -3 -6 -2 -7 4 -4
6 4 56 -41 112 -98 56 -58 105 -105 110 -105 10 0 47 -41 54 -60 3 -8 6 -10 6
-3 1 13 78 -34 124 -75 15 -14 27 -23 27 -19 0 3 16 -5 36 -18 19 -13 44 -27
55 -30 10 -4 19 -11 19 -16 0 -5 7 -9 16 -9 11 0 14 -5 10 -16 -5 -13 -4 -14
7 -5 11 8 23 7 52 -5 30 -12 35 -18 24 -25 -10 -7 -5 -8 14 -3 17 4 27 2 27
-5 0 -6 9 -11 19 -11 30 0 52 -11 44 -23 -3 -6 -1 -7 6 -3 6 4 30 1 54 -8 23
-8 54 -17 70 -20 16 -4 27 -13 28 -24 0 -10 3 -12 6 -4 2 6 11 12 19 12 9 0
13 -4 9 -9 -3 -5 0 -13 6 -17 8 -5 9 -3 4 6 -6 10 -2 11 16 7 13 -3 41 -9 62
-12 20 -4 37 -10 37 -14 0 -4 18 -5 40 -3 22 2 40 0 40 -4 0 -5 26 -10 58 -12
31 -2 69 -9 85 -17 15 -7 25 -9 22 -4 -8 11 63 11 90 -1 12 -5 14 -9 6 -9 -8
-1 -11 -4 -8 -7 4 -4 12 -2 19 3 7 6 42 11 78 12 36 0 76 3 89 6 14 2 31 -1
40 -8 9 -7 12 -7 8 -1 -4 8 28 15 101 24 156 18 178 18 174 0 -2 -8 0 -11 5
-7 4 5 8 13 8 19 0 6 7 12 15 14 26 5 84 21 109 29 17 5 22 4 16 -5 -4 -7 4
-5 17 4 14 9 28 13 31 9 4 -3 7 -2 7 4 0 10 64 29 83 25 4 -1 7 2 7 6 0 5 19
15 43 23 23 7 67 26 97 41 30 14 58 24 62 22 5 -3 8 0 8 6 0 7 7 9 16 6 8 -3
13 -2 10 2 -5 8 127 92 143 92 5 0 12 7 15 16 4 9 9 14 12 11 3 -2 17 6 31 19
14 13 28 22 30 20 2 -2 16 8 31 23 49 46 80 70 86 64 3 -4 6 1 6 10 0 9 7 17
15 17 8 0 15 5 15 11 0 5 5 7 12 3 6 -4 8 -3 5 3 -8 13 57 76 68 66 4 -5 5 -3
2 3 -3 6 23 41 59 78 36 37 59 64 52 60 -7 -5 0 7 16 26 16 19 33 34 38 32 5
-1 7 2 3 8 -3 5 -1 10 4 10 6 0 10 3 9 8 -3 14 14 42 22 37 5 -3 12 0 16 6 4
8 3 9 -4 5 -16 -10 -15 4 2 23 19 22 64 100 77 133 6 16 16 25 22 21 6 -3 7
-1 3 5 -6 10 17 65 34 82 3 3 6 12 8 20 6 31 25 70 32 65 4 -2 7 10 8 27 0 17
7 35 14 39 7 5 13 14 14 21 1 35 16 88 23 84 5 -3 7 6 5 21 -1 15 4 39 12 55
8 16 12 33 9 38 -3 6 -2 10 2 10 8 0 10 8 14 65 1 13 4 23 8 21 3 -2 7 24 8
57 2 34 8 85 13 112 6 28 12 73 13 100 1 28 6 53 12 57 7 5 6 8 -1 8 -6 0 -12
26 -13 66 -1 36 2 63 7 60 5 -3 9 1 9 9 0 8 -5 11 -10 8 -6 -3 -7 18 -4 55 3
40 1 63 -7 66 -7 3 -7 5 2 5 6 1 12 6 12 12 0 5 -4 8 -9 4 -6 -3 -13 16 -16
42 -3 27 -9 64 -12 83 -4 19 -7 51 -7 72 -1 20 -4 34 -7 32 -4 -2 -9 5 -12 16
-3 13 -1 18 6 13 9 -5 9 -3 1 8 -16 20 -46 128 -39 139 3 6 1 10 -5 10 -7 0
-9 7 -6 16 3 8 2 13 -2 10 -4 -2 -21 30 -36 72 -16 42 -36 88 -44 101 -12 20
-12 25 -1 32 11 7 11 9 -1 9 -17 0 -53 57 -44 71 3 5 0 9 -5 9 -6 0 -11 7 -11
15 0 8 -5 15 -11 15 -5 0 -7 5 -4 10 3 6 2 10 -3 10 -5 0 -17 18 -27 40 -10
22 -22 40 -28 40 -5 0 -7 7 -3 15 3 8 2 14 -2 12 -4 -1 -7 1 -7 5 0 4 -7 13
-16 20 -23 19 -79 94 -79 106 0 5 -7 13 -16 16 -8 3 -12 10 -9 16 3 5 1 10 -5
10 -12 0 -41 25 -37 31 2 2 -32 38 -75 80 -43 41 -78 73 -78 70 -1 -3 -8 3
-18 14 -9 11 -30 28 -45 38 -15 10 -25 23 -21 29 4 7 3 8 -4 4 -6 -4 -20 2
-32 14 -11 11 -20 18 -20 15 0 -3 -40 22 -90 55 -49 33 -101 65 -115 70 -14 5
-25 17 -25 27 0 13 -2 15 -8 5 -7 -10 -14 -10 -35 1 -15 8 -23 18 -19 22 4 5
1 5 -6 1 -7 -4 -24 -1 -37 8 -13 9 -31 16 -40 16 -8 0 -15 5 -15 11 0 5 -4 8
-9 4 -6 -3 -16 1 -23 8 -7 8 -20 12 -30 9 -10 -2 -18 0 -18 5 0 5 -10 9 -22
10 -11 1 -24 6 -27 10 -3 4 -22 9 -41 11 -19 1 -37 7 -38 12 -2 6 -8 8 -13 4
-5 -3 -14 -2 -21 2 -7 4 -21 9 -32 10 -12 1 -34 5 -51 9 -16 4 -40 8 -52 8
-13 1 -23 3 -23 7 0 3 -28 6 -63 8 -107 4 -163 12 -186 26 -10 6 -12 5 -7 -2
5 -8 -5 -11 -29 -10 -19 1 -35 6 -35 12 0 8 -2 8 -8 0 -8 -12 -124 -15 -116
-3 7 12 0 11 -12 -1z m368 -175 c321 -42 559 -138 818 -329 632 -465 866
-1363 559 -2141 -159 -401 -436 -709 -819 -913 -434 -231 -1082 -257 -1566
-64 -564 226 -944 706 -1051 1327 -23 139 -24 501 0 635 24 137 60 273 98 370
242 615 767 1024 1429 1115 132 18 396 18 532 0z"/>
<path d="M2070 4081 c-342 -75 -604 -293 -766 -635 -77 -164 -123 -339 -145
-553 -14 -137 -5 -493 15 -632 64 -426 227 -799 456 -1043 221 -237 467 -348
769 -348 436 0 779 220 977 624 136 280 189 596 164 983 -36 569 -204 1010
-494 1299 -155 155 -301 242 -491 295 -115 31 -365 37 -485 10z m407 -148 c3
-7 10 -10 17 -7 17 6 116 -25 116 -37 0 -5 6 -6 13 -4 6 3 28 -5 47 -17 19
-12 40 -23 47 -24 29 -5 175 -118 166 -128 -4 -3 0 -6 8 -6 22 0 183 -175 177
-192 -2 -4 5 -13 14 -20 9 -7 18 -20 20 -28 2 -8 13 -26 26 -40 12 -14 21 -33
18 -42 -2 -11 2 -18 11 -18 8 0 12 -4 8 -9 -3 -5 -1 -12 4 -16 10 -6 41 -63
41 -75 0 -4 10 -29 22 -56 12 -27 23 -51 23 -54 1 -3 7 -18 13 -33 15 -36 15
-40 0 -31 -7 4 -6 -1 3 -12 19 -22 41 -84 31 -84 -4 0 -2 -4 4 -8 13 -8 37
-112 38 -164 1 -20 4 -34 9 -31 4 2 8 -7 9 -21 3 -41 6 -76 17 -151 14 -108
14 -198 -1 -189 -10 6 -10 5 -1 -7 15 -19 19 -51 9 -68 -7 -10 -6 -12 4 -6 10
6 11 -8 6 -71 -4 -43 -7 -101 -6 -127 1 -38 -2 -47 -12 -41 -10 5 -11 4 0 -7
19 -21 16 -53 -5 -44 -15 5 -16 4 -5 -6 13 -14 17 -73 5 -66 -5 3 -9 -11 -9
-31 -1 -38 -11 -96 -20 -122 -3 -8 -8 -28 -11 -45 -3 -16 -11 -43 -18 -60 -8
-16 -21 -54 -31 -82 -9 -31 -21 -50 -27 -46 -5 3 -7 1 -4 -5 9 -13 -2 -44 -13
-37 -5 3 -12 0 -16 -6 -4 -8 -3 -9 4 -5 17 10 15 4 -10 -43 -15 -28 -27 -40
-36 -36 -12 4 -12 3 -3 -9 10 -11 8 -17 -6 -25 -10 -6 -14 -11 -9 -11 5 0 1
-9 -9 -20 -10 -11 -22 -17 -28 -13 -6 3 -7 1 -3 -5 9 -15 -15 -52 -33 -52 -8
0 -12 -3 -8 -6 8 -8 -80 -101 -130 -135 -24 -17 -43 -27 -43 -24 0 4 -7 -1
-16 -10 -9 -9 -23 -14 -30 -11 -7 3 -11 0 -8 -7 6 -16 -119 -74 -215 -100
-114 -30 -339 -33 -446 -6 -43 10 -82 23 -85 27 -3 4 -14 9 -25 10 -11 2 -22
8 -23 13 -2 5 -7 7 -11 5 -4 -3 -29 8 -56 23 -37 20 -49 32 -47 46 2 15 1 17
-7 6 -11 -17 -46 -7 -35 10 4 8 3 9 -5 5 -7 -5 -25 6 -46 28 -18 20 -37 36
-42 36 -10 0 -94 91 -153 165 -28 34 -38 56 -34 70 4 14 2 16 -4 7 -11 -17
-66 63 -58 84 3 8 2 13 -3 9 -13 -7 -88 146 -83 169 2 10 0 16 -6 12 -5 -3
-13 1 -16 10 -4 9 -2 13 5 8 7 -4 2 7 -11 24 -12 16 -20 35 -16 40 3 6 2 12
-4 14 -12 4 -51 139 -44 150 3 4 1 8 -3 8 -5 0 -14 22 -19 50 -7 34 -7 50 0
50 5 0 2 6 -7 13 -11 8 -18 29 -19 64 -2 29 -7 53 -11 53 -5 0 -7 12 -6 28 1
15 -1 38 -5 52 -13 48 -15 174 -3 189 9 12 9 13 -1 7 -10 -6 -13 22 -11 146 2
88 7 159 13 167 8 11 8 13 -1 7 -10 -5 -13 3 -13 29 0 20 3 34 8 32 6 -5 10
29 11 106 0 16 5 26 10 23 5 -3 9 0 8 7 -1 36 4 46 21 41 16 -5 16 -5 0 6 -18
11 -26 36 -9 26 4 -3 6 6 3 21 -3 18 -1 24 6 19 7 -4 10 -2 6 7 -6 16 33 144
47 153 5 3 9 14 9 25 0 10 5 19 10 19 6 0 10 7 10 16 0 11 5 14 18 9 13 -5 14
-3 6 5 -13 13 -7 50 8 50 5 0 6 -5 2 -12 -5 -7 -3 -8 5 -3 9 5 9 11 3 17 -11
11 55 123 111 186 59 67 107 115 107 107 0 -4 9 4 21 19 11 14 24 24 29 21 4
-3 11 2 14 11 5 13 9 14 21 4 13 -11 14 -10 10 2 -4 9 4 22 20 32 22 15 29 15
43 4 11 -9 14 -10 8 0 -11 19 3 35 20 21 11 -9 13 -9 9 2 -6 17 48 44 71 35 8
-3 13 -2 9 3 -6 10 42 28 125 47 72 16 372 14 377 -3z"/>
</g>
</svg>
