<?xml version="1.0" standalone="no"?>
<!DOCTYPE svg PUBLIC "-//W3C//DTD SVG 20010904//EN"
 "http://www.w3.org/TR/2001/REC-SVG-20010904/DTD/svg10.dtd">
<svg version="1.0" xmlns="http://www.w3.org/2000/svg"
 width="499.000000pt" height="499.000000pt" viewBox="0 0 499.000000 499.000000"
 preserveAspectRatio="xMidYMid meet">

<g transform="translate(0.000000,499.000000) scale(0.100000,-0.100000)"
fill="#000000" stroke="none">
<path d="M362 4583 c-34 -7 -98 -75 -105 -113 -10 -49 -8 -210 3 -250 22 -78
98 -119 222 -120 32 0 88 -10 125 -22 61 -19 77 -31 158 -112 103 -103 183
-212 353 -482 128 -203 252 -399 513 -806 90 -142 206 -324 257 -405 l92 -147
0 -513 c0 -535 -3 -585 -43 -645 -40 -59 -93 -77 -267 -89 -85 -6 -168 -15
-183 -21 -16 -6 -40 -27 -55 -46 -26 -35 -27 -39 -27 -176 0 -160 11 -193 75
-231 35 -20 48 -20 956 -20 l920 0 37 25 c64 44 77 81 77 217 0 106 -3 125
-23 163 -35 66 -66 77 -246 89 -245 17 -284 45 -311 217 -7 44 -10 243 -8 549
l3 480 136 205 c187 283 432 654 644 975 223 339 354 514 475 635 110 110 176
148 278 160 86 11 109 21 149 60 40 40 46 70 42 214 -4 124 -13 145 -73 190
-27 21 -38 21 -752 24 -707 2 -725 2 -763 -18 -71 -36 -85 -68 -90 -199 -2
-67 1 -130 8 -152 20 -66 102 -119 186 -119 54 0 157 -43 196 -81 46 -46 54
-88 34 -174 -40 -173 -168 -396 -509 -885 -48 -69 -108 -157 -134 -197 -26
-40 -50 -72 -54 -73 -7 0 -37 44 -208 310 -62 96 -136 211 -165 255 -172 265
-344 541 -382 615 -39 76 -43 91 -41 144 3 57 5 60 33 69 17 5 91 12 166 16
148 8 194 22 233 75 18 24 21 44 24 164 3 163 -7 192 -77 229 l-44 23 -906 -1
c-498 -1 -916 -4 -929 -6z m1808 -238 l0 -85 -69 0 c-177 0 -313 -39 -365
-103 -30 -37 -31 -42 -31 -136 0 -96 0 -97 50 -196 47 -94 173 -300 388 -632
51 -79 175 -272 277 -429 102 -158 194 -302 205 -320 11 -19 23 -33 27 -31 8
2 536 775 628 917 72 114 173 314 207 414 22 64 28 99 28 167 0 75 -4 92 -30
144 -51 100 -149 159 -317 193 -67 13 -78 18 -79 36 -1 33 -1 120 0 134 1 9
144 12 681 12 l680 0 0 -84 0 -84 -47 -6 c-140 -20 -240 -76 -377 -213 -148
-147 -321 -392 -851 -1203 -34 -52 -148 -225 -254 -385 l-191 -290 0 -520 c0
-290 4 -547 10 -580 39 -238 158 -327 458 -342 l123 -6 -3 -86 -3 -86 -882 -3
-883 -2 0 88 0 89 123 6 c310 15 424 107 456 367 7 49 11 292 11 580 l0 495
-39 60 c-21 33 -257 404 -525 824 -267 420 -518 807 -558 860 -104 139 -219
251 -298 289 -63 31 -203 62 -276 62 l-34 0 0 85 0 85 880 0 880 0 0 -85z"/>
</g>
</svg>
