<?xml version="1.0" standalone="no"?>
<!DOCTYPE svg PUBLIC "-//W3C//DTD SVG 20010904//EN"
 "http://www.w3.org/TR/2001/REC-SVG-20010904/DTD/svg10.dtd">
<svg version="1.0" xmlns="http://www.w3.org/2000/svg"
 width="3464.000000pt" height="3464.000000pt" viewBox="0 0 3464.000000 3464.000000"
 preserveAspectRatio="xMidYMid meet">
<metadata>
Created by potrace 1.16, written by Peter Selinger 2001-2019
</metadata>
<g transform="translate(0.000000,3464.000000) scale(0.100000,-0.100000)"
fill="#000000" stroke="none">
<path d="M2746 31679 c-483 -51 -868 -416 -957 -909 -20 -109 -20 -1411 0
-1520 85 -466 443 -826 900 -901 31 -6 281 -14 556 -19 668 -12 921 -35 1296
-119 376 -84 641 -211 811 -390 245 -255 382 -703 418 -1361 8 -137 10 -2879
8 -9275 -4 -8431 -5 -9091 -21 -9235 -40 -370 -90 -615 -172 -836 -117 -314
-265 -477 -561 -615 -47 -23 -98 -45 -113 -49 -14 -5 -64 -20 -111 -35 -365
-112 -752 -153 -1560 -165 -540 -8 -546 -8 -642 -33 -130 -35 -225 -77 -327
-144 -234 -156 -394 -379 -461 -645 -33 -126 -40 -283 -40 -878 0 -767 6 -829
103 -1054 111 -260 339 -475 609 -576 29 -11 91 -30 138 -42 l85 -23 6135 -3
c4643 -2 6157 0 6225 9 419 54 758 328 895 723 60 173 61 190 58 1008 l-3 743
-28 100 c-55 200 -176 400 -320 528 -165 146 -305 217 -517 262 -110 24 -131
25 -490 25 -553 0 -894 17 -1215 61 -629 85 -969 243 -1149 532 -142 227 -232
618 -266 1147 -6 109 -10 1383 -10 3763 l0 3598 678 -4 c703 -4 767 -8 956
-52 146 -33 316 -145 496 -326 127 -128 140 -143 628 -740 865 -1059 2046
-2476 3906 -4689 382 -454 786 -934 906 -1075 75 -88 165 -198 200 -245 523
-692 1268 -1606 1789 -2195 390 -440 988 -1049 1321 -1346 837 -744 1493
-1162 2315 -1474 387 -147 715 -236 1169 -317 l181 -33 400 2 c804 3 1785 66
2865 184 384 42 929 110 1028 130 397 77 715 361 835 744 46 146 49 198 45
860 l-4 620 -27 95 c-57 199 -188 410 -333 534 -211 180 -416 259 -729 276
-88 5 -185 16 -215 23 -145 37 -234 69 -405 147 -78 35 -289 155 -373 212
-437 295 -1007 829 -1742 1631 -109 119 -212 219 -314 304 -690 579 -1219
1095 -1808 1764 -241 274 -1980 2356 -2768 3314 -635 773 -1139 1365 -2247
2641 l-53 61 113 32 c185 53 630 199 832 273 315 116 579 227 980 413 85 39
454 233 575 302 1589 905 2770 2204 3387 3728 450 1111 603 2416 432 3690
-151 1129 -579 2183 -1253 3090 -792 1064 -1813 1898 -3081 2516 -825 402
-1720 712 -2645 918 -523 116 -1142 212 -1680 260 -777 70 -89 65 -8225 67
-4032 1 -7366 -2 -7409 -7z m14969 -1102 c678 -47 993 -82 1510 -168 1454
-242 2878 -780 3943 -1491 410 -273 742 -546 1092 -897 517 -518 901 -1048
1186 -1636 332 -686 504 -1362 559 -2203 10 -149 7 -658 -5 -818 -101 -1371
-595 -2538 -1499 -3544 -1256 -1396 -3079 -2278 -5591 -2705 -118 -20 -216
-38 -218 -40 -3 -2 230 -272 1648 -1910 843 -973 1317 -1531 1700 -2000 825
-1009 2690 -3240 3011 -3600 551 -620 1181 -1231 1816 -1763 67 -56 144 -126
171 -155 27 -28 131 -142 233 -251 499 -541 1000 -1021 1395 -1339 308 -248
520 -386 829 -537 395 -193 705 -284 1048 -305 l107 -7 0 -483 0 -483 -27 -6
c-16 -3 -156 -21 -313 -41 -1245 -153 -2258 -230 -3280 -251 -321 -6 -327 -6
-470 20 -843 152 -1563 464 -2257 977 -998 739 -2077 1903 -3588 3869 -66 85
-417 508 -780 940 -1965 2334 -3446 4110 -4320 5180 -493 604 -516 630 -680
796 -401 403 -749 594 -1220 669 -283 46 -323 47 -1583 52 l-1202 5 3 -4279
c3 -3977 4 -4289 20 -4438 63 -583 156 -962 314 -1284 126 -256 296 -474 513
-655 533 -445 1380 -636 2828 -636 l322 0 0 -610 0 -610 -6030 0 -6030 0 0
610 0 610 368 0 c760 1 1267 51 1748 175 225 58 396 121 575 211 441 223 738
521 945 949 206 425 317 931 354 1625 8 148 10 2737 8 9340 -3 8606 -5 9144
-21 9290 -35 310 -64 481 -124 715 -183 720 -553 1222 -1123 1523 -576 305
-1349 440 -2517 442 l-213 0 0 585 0 586 7303 -4 c6664 -3 7323 -5 7542 -20z"/>
<path d="M10930 23665 l0 -5766 1818 4 c1930 5 2060 7 2652 57 1714 144 3048
537 4013 1183 1231 822 1895 2078 1998 3775 13 218 7 936 -10 1122 -54 596
-145 1071 -292 1525 -325 1008 -885 1803 -1719 2442 -867 663 -1998 1104
-3329 1298 -339 49 -577 72 -1101 106 -116 8 -824 13 -2102 16 l-1928 5 0
-5767z m4200 4642 c530 -43 908 -95 1320 -183 796 -169 1481 -447 2065 -837
1254 -839 1845 -2153 1812 -4031 -6 -325 -12 -415 -43 -666 -80 -637 -276
-1197 -577 -1650 -201 -302 -549 -649 -867 -865 -889 -605 -2205 -957 -3940
-1055 -382 -21 -914 -30 -1882 -30 l-998 0 0 4671 0 4670 1453 -4 c1234 -3
1483 -6 1657 -20z"/>
</g>
</svg>
