<?xml version="1.0" standalone="no"?>
<!DOCTYPE svg PUBLIC "-//W3C//DTD SVG 20010904//EN"
 "http://www.w3.org/TR/2001/REC-SVG-20010904/DTD/svg10.dtd">
<svg version="1.0" xmlns="http://www.w3.org/2000/svg"
 width="499.000000pt" height="499.000000pt" viewBox="0 0 499.000000 499.000000"
 preserveAspectRatio="xMidYMid meet">

<g transform="translate(0.000000,499.000000) scale(0.100000,-0.100000)"
fill="#000000" stroke="none">
<path d="M2111 4126 c-75 -25 -121 -85 -121 -161 0 -19 12 -64 26 -100 18 -45
24 -75 20 -96 -5 -26 -496 -1266 -723 -1824 -153 -379 -239 -536 -321 -590
-20 -13 -66 -31 -102 -40 -83 -20 -103 -34 -130 -89 -19 -41 -21 -59 -18 -160
3 -126 12 -149 77 -193 47 -32 104 -35 651 -31 552 3 530 1 587 75 26 34 28
43 31 154 4 128 -5 162 -57 206 -25 22 -47 28 -191 53 -110 19 -145 58 -135
154 6 55 86 301 144 444 l28 67 457 0 458 0 79 -183 c135 -312 174 -450 134
-466 -13 -4 -93 -16 -230 -32 -60 -7 -103 -38 -127 -90 -17 -39 -19 -62 -16
-158 3 -105 5 -115 31 -149 58 -76 14 -72 753 -72 l660 0 43 28 c62 41 81 89
81 207 0 80 -4 103 -22 140 -30 57 -56 75 -156 104 -147 42 -169 75 -387 601
-75 182 -257 620 -405 975 -356 858 -403 971 -440 1065 -35 88 -67 129 -120
153 -50 22 -495 28 -559 8z m591 -386 c49 -118 131 -316 183 -440 233 -562
425 -1025 570 -1375 87 -209 179 -423 205 -475 86 -172 160 -242 298 -283 l72
-21 0 -68 0 -68 -615 0 -615 0 0 69 0 68 78 7 c144 13 217 40 270 100 79 90
54 218 -124 628 -53 123 -103 238 -110 256 l-14 32 -568 0 -568 0 -58 -147
c-80 -201 -153 -424 -166 -504 -31 -199 76 -329 300 -361 l80 -12 0 -68 0 -68
-505 0 -505 0 0 69 0 69 38 7 c78 14 131 46 201 121 135 145 141 158 686 1526
l394 988 -34 81 c-19 44 -35 83 -35 85 0 2 102 3 227 2 l226 -3 89 -215z"/>
<path d="M2295 3583 c-39 -101 -455 -1213 -455 -1219 0 -2 221 -4 491 -4 l490
0 -7 23 c-4 12 -26 67 -49 122 -24 55 -102 244 -175 420 -72 176 -149 361
-170 410 -21 50 -52 126 -70 170 -38 93 -45 103 -55 78z m48 -500 c14 -33 210
-505 224 -540 4 -10 -47 -13 -236 -13 -133 0 -241 4 -241 8 0 22 178 508 207
565 17 33 24 30 46 -20z"/>
</g>
</svg>
