<?xml version="1.0" standalone="no"?>
<!DOCTYPE svg PUBLIC "-//W3C//DTD SVG 20010904//EN"
 "http://www.w3.org/TR/2001/REC-SVG-20010904/DTD/svg10.dtd">
<svg version="1.0" xmlns="http://www.w3.org/2000/svg"
 width="499.000000pt" height="499.000000pt" viewBox="0 0 499.000000 499.000000"
 preserveAspectRatio="xMidYMid meet">

<g transform="translate(0.000000,499.000000) scale(0.100000,-0.100000)"
fill="#000000" stroke="none">
<path d="M579 4261 c-30 -29 -39 -47 -39 -72 0 -19 -7 -149 -15 -289 -9 -140
-18 -325 -22 -410 l-6 -155 26 -31 c41 -49 70 -56 210 -52 154 4 154 4 231
164 134 278 248 395 433 446 68 18 113 22 346 26 l267 4 0 -1300 c0 -931 -3
-1316 -11 -1354 -14 -63 -56 -110 -114 -128 -22 -6 -98 -14 -169 -17 -129 -6
-130 -6 -165 -39 l-36 -32 -3 -124 c-4 -139 5 -170 61 -204 31 -18 59 -19 832
-19 746 0 802 1 832 18 53 28 66 66 67 192 1 178 -23 201 -224 209 -178 8
-234 29 -264 99 -30 73 -28 -13 -27 1580 l1 1119 283 -5 c295 -4 348 -11 437
-57 125 -64 254 -234 347 -460 12 -29 36 -68 53 -85 30 -30 31 -30 156 -33
140 -4 170 3 209 50 31 36 32 90 10 373 -8 105 -19 267 -25 360 -6 94 -15 182
-21 197 -6 15 -26 37 -44 48 -32 20 -47 20 -1805 20 l-1772 0 -39 -39z m3545
-143 c5 -46 46 -692 46 -725 0 -10 -24 -13 -85 -13 l-84 0 -54 113 c-138 289
-290 442 -503 504 -50 14 -117 17 -422 21 l-362 3 2 -1403 3 -1403 24 -59 c53
-131 146 -181 363 -193 l118 -6 0 -74 0 -73 -765 0 -765 0 0 74 0 73 113 6
c220 12 303 57 359 194 l23 58 3 1403 2 1404 -352 -4 c-330 -4 -358 -6 -428
-27 -214 -64 -365 -214 -509 -503 l-53 -108 -84 0 -84 0 0 28 c0 15 9 189 20
387 11 198 20 363 20 368 0 4 776 7 1724 7 l1725 0 5 -52z"/>
</g>
</svg>
