<?xml version="1.0" standalone="no"?>
<!DOCTYPE svg PUBLIC "-//W3C//DTD SVG 20010904//EN"
 "http://www.w3.org/TR/2001/REC-SVG-20010904/DTD/svg10.dtd">
<svg version="1.0" xmlns="http://www.w3.org/2000/svg"
 width="499.000000pt" height="499.000000pt" viewBox="0 0 499.000000 499.000000"
 preserveAspectRatio="xMidYMid meet">
<metadata>
Created by potrace 1.16, written by Peter Selinger 2001-2019
</metadata>
<g transform="translate(0.000000,499.000000) scale(0.100000,-0.100000)"
fill="#000000" stroke="none">
<path d="M1083 4884 c-3 -8 -12 -13 -20 -10 -8 3 -12 2 -9 -3 6 -9 -22 -26
-36 -23 -5 1 -7 -4 -5 -10 1 -7 -3 -12 -10 -11 -7 2 -10 -3 -7 -11 3 -8 1 -17
-5 -21 -6 -3 -11 -17 -11 -31 0 -14 -3 -23 -7 -21 -9 6 -6 -199 3 -283 3 -30
5 -57 4 -58 -1 -2 12 -15 29 -29 17 -14 28 -29 25 -34 -3 -5 3 -6 12 -2 12 4
15 3 10 -5 -5 -8 -2 -10 8 -6 9 4 16 1 16 -6 0 -6 6 -10 13 -7 6 2 21 -3 31
-12 11 -9 17 -11 13 -6 -8 15 126 6 135 -9 6 -8 8 -7 8 2 0 16 130 15 130 -2
0 -7 3 -7 8 1 6 9 22 8 70 -4 34 -8 59 -19 56 -24 -3 -5 2 -6 10 -3 20 8 94
-64 99 -96 2 -14 7 -33 12 -43 4 -9 5 -29 2 -42 -2 -14 -1 -27 3 -30 4 -2 7
-74 7 -160 1 -113 -2 -153 -11 -148 -8 5 -8 3 0 -8 16 -20 16 -321 0 -312 -8
5 -8 3 0 -8 16 -20 16 -321 0 -312 -8 5 -8 3 0 -8 16 -20 16 -321 0 -312 -8 5
-8 3 0 -8 16 -20 16 -321 0 -312 -8 5 -8 3 0 -8 16 -20 16 -321 0 -312 -8 5
-8 3 0 -8 16 -20 16 -321 0 -312 -8 5 -8 3 0 -8 16 -20 16 -321 0 -312 -8 5
-8 3 0 -8 16 -20 16 -321 0 -312 -8 5 -8 3 0 -8 16 -20 16 -321 0 -312 -8 5
-8 3 1 -8 12 -15 5 -70 -15 -119 -5 -14 -10 -29 -10 -35 -2 -22 -54 -76 -68
-71 -8 3 -12 1 -9 -4 7 -12 -40 -24 -56 -14 -8 5 -9 3 -4 -6 6 -10 1 -12 -18
-8 -15 3 -25 2 -22 -2 7 -11 -164 -30 -260 -29 -63 1 -101 -4 -128 -15 -21 -9
-42 -14 -47 -11 -6 3 -7 -1 -4 -9 4 -11 0 -16 -10 -16 -9 0 -15 -6 -13 -12 1
-7 -5 -12 -13 -10 -8 2 -12 1 -8 -3 3 -4 2 -21 -3 -38 -9 -33 -14 -295 -5
-334 8 -38 34 -80 60 -97 23 -15 125 -16 1190 -16 l1165 0 30 37 c17 21 31 44
31 51 0 7 3 11 8 9 8 -6 10 12 11 163 0 127 -1 142 -18 183 -6 16 -11 31 -11
34 0 12 -61 63 -75 63 -8 0 -15 4 -15 8 0 10 7 10 -160 15 -183 6 -286 20
-276 36 3 4 -5 6 -18 4 -13 -3 -30 2 -39 12 -10 9 -17 13 -17 9 0 -3 -7 -1
-15 6 -8 7 -12 17 -8 23 3 6 1 7 -5 3 -25 -16 -75 182 -53 208 7 8 8 17 3 20
-12 7 -12 295 0 302 5 3 5 10 0 17 -12 16 -13 289 -1 304 6 6 6 14 1 17 -12 7
-12 295 0 302 5 3 5 10 0 17 -12 16 -13 289 -1 304 6 6 6 14 1 17 -12 7 -12
295 0 302 5 3 5 10 0 17 -12 16 -13 289 -1 304 6 6 6 14 1 17 -12 7 -12 295 0
302 5 3 5 10 0 17 -12 16 -13 289 -1 304 6 6 6 14 1 17 -12 7 -12 295 0 302 5
3 5 10 0 17 -14 18 -12 289 1 306 9 11 9 13 0 8 -8 -5 -7 6 2 37 15 48 44 107
45 91 0 -5 6 1 13 15 7 13 26 29 42 35 17 5 33 14 37 20 4 5 10 6 14 2 4 -4
12 -3 18 2 20 15 76 22 76 8 0 -8 2 -9 8 -1 11 17 172 19 172 2 0 -9 3 -10 8
-2 4 6 36 14 72 18 45 4 76 14 104 33 23 14 46 26 52 26 7 0 10 6 7 14 -3 7 1
13 8 13 7 0 10 3 7 6 -4 3 0 22 9 42 8 19 14 64 14 99 0 47 3 62 12 56 9 -5 9
-3 1 8 -7 8 -12 37 -13 65 0 29 -5 64 -11 78 -13 36 -13 49 2 40 7 -4 8 -3 4
5 -4 6 -11 9 -15 7 -4 -3 -14 6 -21 19 -7 14 -16 25 -20 25 -3 0 -15 8 -26 18
-20 19 -26 22 -45 22 -5 0 -7 6 -3 13 6 10 4 10 -7 0 -14 -14 -33 -18 -26 -5
6 8 -2084 7 -2161 -2 -35 -4 -51 -3 -47 4 3 5 4 10 0 10 -3 0 -8 -7 -12 -16z
m2197 -283 l0 -98 -142 -6 c-352 -13 -498 -103 -566 -349 -16 -59 -17 -175
-17 -1698 0 -1781 -2 -1708 57 -1840 73 -164 202 -223 516 -236 l153 -7 -3
-101 -3 -101 -1057 -3 -1058 -2 0 103 0 104 128 7 c159 8 227 20 320 52 138
49 215 149 247 320 23 115 22 3274 0 3390 -28 150 -88 236 -198 288 -97 46
-191 65 -357 73 l-140 6 0 99 0 98 1060 0 1060 0 0 -99z"/>
</g>
</svg>
